<svg width="136" height="139" viewBox="0 0 136 139" fill="none" xmlns="http://www.w3.org/2000/svg">
<g opacity="0.41">
<path d="M56.936 135.937C86.724 135.937 110.872 111.789 110.872 82.001C110.872 52.213 86.724 28.065 56.936 28.065C27.148 28.065 3 52.213 3 82.001C3 111.789 27.148 135.937 56.936 135.937Z" fill="#FE474E"/>
</g>
<g opacity="0.41">
<path d="M81.883 107.872C111.671 107.872 135.819 83.724 135.819 53.936C135.819 24.148 111.671 0 81.883 0C52.095 0 27.947 24.148 27.947 53.936C27.947 83.724 52.095 107.872 81.883 107.872Z" fill="#FE474E"/>
</g>
<path d="M63.7577 74.0526L64.1991 70.7104C64.4348 68.9267 63.2983 67.4807 61.6607 67.4807H34.9622L34.0939 74.0526L33.5581 78.1075L28.543 116.071C27.9968 120.206 30.6317 123.559 34.4281 123.559H92.715C96.5114 123.559 100.032 120.206 100.578 116.071L106.129 74.0526H63.7577Z" fill="#060A0E"/>
<path d="M84.8997 82.3492C72.5839 75.0746 60.2688 67.7999 47.953 60.5253C65.5872 50.9215 56.6195 25.6038 74.2534 16C86.5689 23.2746 98.8843 30.5492 111.2 37.8239C93.5662 47.428 102.534 72.7454 84.8997 82.3492Z" fill="white"/>
<path d="M76.7843 52.6219C72.0266 49.8118 67.2693 47.0016 62.5116 44.1914C64.8998 35.4631 66.1307 26.0515 73.1138 20.0376C77.8715 22.8478 82.6288 25.658 87.3865 28.4682C80.4033 34.4821 79.1728 43.8936 76.7843 52.6219Z" fill="#D9D9D9"/>
<path d="M103.581 40.388C98.5422 37.4119 93.5041 34.4359 88.4657 31.4598C88.9405 30.9556 89.4467 30.4694 89.9871 30.0041C95.0255 32.9801 100.064 35.9562 105.102 38.9322C104.561 39.3976 104.055 39.8834 103.581 40.388Z" fill="#FF3139"/>
<path d="M94.8568 38.6282C92.1035 37.0021 89.3506 35.3759 86.5977 33.7498C86.8489 33.3945 87.1109 33.046 87.3847 32.7042C90.138 34.3304 92.8909 35.9565 95.6438 37.5827C95.37 37.9245 95.108 38.2729 94.8568 38.6282Z" fill="#868686"/>
<path d="M70.1499 51.2203C67.3969 49.5941 64.644 47.968 61.8907 46.3418C62.0212 45.9153 62.1475 45.4864 62.2704 45.0554C65.0237 46.6816 67.7766 48.3077 70.5295 49.9339C70.4067 50.3649 70.2807 50.7938 70.1499 51.2203Z" fill="#868686"/>
<path d="M75.7838 55.9672C71.0264 53.1571 66.2688 50.3469 61.5111 47.5367C61.5805 47.326 61.6492 47.1147 61.7162 46.9027C66.4739 49.7129 71.2312 52.523 75.9889 55.3332C75.9219 55.5453 75.8535 55.7566 75.7838 55.9672Z" fill="#D9D9D9"/>
<path d="M75.3771 57.1464C70.6194 54.3362 65.8621 51.526 61.1044 48.7158C61.179 48.5083 61.2522 48.2998 61.3244 48.0905C66.0817 50.9007 70.8394 53.7109 75.5971 56.5211C75.5252 56.7307 75.452 56.9389 75.3771 57.1464Z" fill="#D9D9D9"/>
<path d="M100.36 44.8309C95.3214 41.8549 90.283 38.8788 85.2449 35.9028C85.3192 35.7702 85.3942 35.638 85.4708 35.5068C90.5093 38.4829 95.5473 41.4589 100.586 44.435C100.509 44.5662 100.434 44.6984 100.36 44.8309Z" fill="#D9D9D9"/>
<path d="M99.2751 46.9891C94.2367 44.013 89.1986 41.0369 84.1602 38.0609C84.2233 37.9217 84.2872 37.7829 84.3521 37.6448C89.3905 40.6209 94.4286 43.5969 99.467 46.573C99.4021 46.7111 99.3382 46.8496 99.2751 46.9891Z" fill="#D9D9D9"/>
<path d="M98.3503 49.2409C93.3119 46.2648 88.2738 43.2888 83.2354 40.3127C83.2895 40.168 83.344 40.024 83.3999 39.8803C88.4383 42.8564 93.4767 45.8324 98.5148 48.8085C98.4589 48.9522 98.4041 49.0965 98.3503 49.2409Z" fill="#D9D9D9"/>
<path d="M97.5521 51.5684C92.5137 48.5923 87.4753 45.6162 82.4372 42.6402C82.484 42.4913 82.5319 42.3431 82.5798 42.1949C87.6179 45.171 92.6566 48.1471 97.6947 51.1231C97.6465 51.2713 97.5989 51.4195 97.5521 51.5684Z" fill="#D9D9D9"/>
<path d="M96.849 53.9517C91.8106 50.9756 86.7725 47.9996 81.7341 45.0235C81.7761 44.8718 81.8185 44.7205 81.8615 44.5692C86.8999 47.5453 91.938 50.5214 96.9764 53.4974C96.9333 53.6484 96.891 53.8 96.849 53.9517Z" fill="#D9D9D9"/>
<path d="M96.2085 56.3718C91.17 53.3958 86.1316 50.4197 81.0936 47.4437C81.1328 47.2903 81.172 47.1369 81.2116 46.9839C86.2496 49.9599 91.2884 52.936 96.3264 55.912C96.2869 56.0651 96.2473 56.2185 96.2085 56.3718Z" fill="#D9D9D9"/>
<path d="M95.5983 58.81C90.5599 55.8339 85.5215 52.8579 80.4835 49.8818C80.5216 49.7277 80.5598 49.574 80.598 49.4199C85.6364 52.396 90.6748 55.372 95.7129 58.3481C95.6743 58.5022 95.6365 58.6559 95.5983 58.81Z" fill="#D9D9D9"/>
<path d="M94.9863 61.2471C89.9478 58.271 84.9094 55.295 79.8714 52.3189C79.9106 52.1655 79.9498 52.0125 79.9887 51.8588C85.0271 54.8348 90.0655 57.8109 95.1035 60.7869C95.0643 60.9403 95.0255 61.0937 94.9863 61.2471Z" fill="#D9D9D9"/>
<path d="M94.3397 63.6638C89.3017 60.6878 84.2629 57.7117 79.2248 54.7356C79.2675 54.5843 79.3095 54.433 79.3511 54.281C84.3896 57.2571 89.4276 60.2332 94.466 63.2092C94.424 63.3609 94.3821 63.5125 94.3397 63.6638Z" fill="#D9D9D9"/>
<path d="M93.6266 66.0413C88.5882 63.0652 83.5498 60.0892 78.5117 57.1131C78.5592 56.9646 78.6064 56.8164 78.6533 56.6672C83.6917 59.6432 88.7301 62.6193 93.7682 65.5954C93.7213 65.7442 93.6745 65.8928 93.6266 66.0413Z" fill="#D9D9D9"/>
<path d="M92.8146 68.3604C87.7762 65.3843 82.7381 62.4083 77.6997 59.4322C77.7545 59.2882 77.809 59.1438 77.8625 58.9988C82.9009 61.9748 87.9393 64.9509 92.9773 67.927C92.9239 68.072 92.8698 68.2164 92.8146 68.3604Z" fill="#D9D9D9"/>
<path d="M91.8717 70.6018C86.8333 67.6257 81.7949 64.6497 76.7568 61.6736C76.821 61.5352 76.8842 61.396 76.9466 61.2565C81.985 64.2326 87.0231 67.2086 92.0615 70.1847C91.9991 70.3242 91.9359 70.4633 91.8717 70.6018Z" fill="#D9D9D9"/>
<path d="M32.8044 91.0802H84.7623L90.2484 33.3195H38.2905L32.8044 91.0802Z" fill="#D9D9D9"/>
<path d="M31.8651 90.8932H83.8232L88.4653 31.6195H36.5075L31.8651 90.8932Z" fill="#FF000A"/>
<path d="M30.8868 88.9804H83.6199L87.4875 29.7067H41.5178L30.8868 88.9804Z" fill="#FF3139"/>
<path d="M84.0911 91.0247H32.1329V34.6677L38.3918 28.4088H84.0911V91.0247Z" fill="white"/>
<path d="M55.7818 33.3195H35.7104V65.03H55.7818V33.3195Z" fill="#D9D9D9"/>
<path d="M54.3719 34.5469L36.9878 63.6128" stroke="white" stroke-miterlimit="10" stroke-linecap="round" stroke-linejoin="round"/>
<path d="M36.9878 34.5469L54.3719 63.6128" stroke="white" stroke-miterlimit="10" stroke-linecap="round" stroke-linejoin="round"/>
<path d="M80.6952 33.3195H59.439V35.7743H80.6952V33.3195Z" fill="#FF3139"/>
<path d="M71.0535 37.7371H59.439V39.3119H71.0535V37.7371Z" fill="#868686"/>
<path d="M47.3252 66.0797H35.7104V67.6545H47.3252V66.0797Z" fill="#868686"/>
<path d="M55.7818 68.3469H35.7104V69.1343H55.7818V68.3469Z" fill="#D9D9D9"/>
<path d="M55.7818 69.8266H35.7104V70.614H55.7818V69.8266Z" fill="#D9D9D9"/>
<path d="M80.6952 41.8375H59.439V42.3896H80.6952V41.8375Z" fill="#D9D9D9"/>
<path d="M80.6952 44.7553H59.439V45.3074H80.6952V44.7553Z" fill="#D9D9D9"/>
<path d="M80.6952 47.6731H59.439V48.2252H80.6952V47.6731Z" fill="#D9D9D9"/>
<path d="M80.6952 50.5908H59.439V51.1429H80.6952V50.5908Z" fill="#D9D9D9"/>
<path d="M80.6952 53.5082H59.439V54.0603H80.6952V53.5082Z" fill="#D9D9D9"/>
<path d="M80.6952 56.426H59.439V56.9781H80.6952V56.426Z" fill="#D9D9D9"/>
<path d="M80.6952 59.3437H59.439V59.8958H80.6952V59.3437Z" fill="#D9D9D9"/>
<path d="M80.6952 62.2615H59.439V62.8136H80.6952V62.2615Z" fill="#D9D9D9"/>
<path d="M80.6952 65.1789H59.439V65.731H80.6952V65.1789Z" fill="#D9D9D9"/>
<path d="M80.6952 68.0966H59.439V68.6488H80.6952V68.0966Z" fill="#D9D9D9"/>
<path d="M80.6952 71.0144H59.439V71.5665H80.6952V71.0144Z" fill="#D9D9D9"/>
<path d="M80.6952 73.9322H59.439V74.4843H80.6952V73.9322Z" fill="#D9D9D9"/>
<path d="M84.0811 78.0398L58.2474 76.7798V74.5155C58.2474 72.5919 56.6899 71.0321 54.7664 71.029L32.1329 70.9939V74.9701L61.1044 88.2773" fill="#D9D9D9"/>
<path d="M57.2174 78.1062V75.0378C57.2174 73.4002 55.8897 72.0725 54.2521 72.0725H27.5536V78.1062V81.829V116.684C27.5536 120.481 30.6314 123.558 34.4278 123.558H92.7146C96.511 123.558 99.5887 120.481 99.5887 116.684V78.1062H57.2174Z" fill="#1D262D"/>
<path d="M59.439 101.773H32.2894V116.732H59.439V101.773Z" fill="#061122"/>
<path d="M45.8642 103.852H34.8116V114.905H45.8642V103.852Z" fill="#FF3139"/>
<path d="M57.6918 103.852H48.0134V106.2H57.6918V103.852Z" fill="#FF3139"/>
<path d="M57.6918 106.973H48.0134V107.612H57.6918V106.973Z" fill="#FF3139"/>
<path d="M57.6918 108.386H48.0134V109.025H57.6918V108.386Z" fill="#FF3139"/>
<path d="M49.3074 110.645H48.0134V111.94H49.3074V110.645Z" fill="#FF3139"/>
<path d="M51.8396 110.645H50.5456V111.94H51.8396V110.645Z" fill="#FF3139"/>
<path d="M54.3718 110.645H53.0775V111.94H54.3718V110.645Z" fill="#FF3139"/>
<path d="M57.6914 113.611H56.3974V114.905H57.6914V113.611Z" fill="#FF3139"/>
<path d="M76.6156 100.8C84.2668 108.793 96.9945 109.07 104.987 101.419C112.98 93.768 113.257 81.0402 105.606 73.048C97.9543 65.0554 85.227 64.7778 77.2344 72.4289C69.2418 80.0804 68.9641 92.8077 76.6156 100.8ZM80.7896 76.1427C86.7344 70.4516 96.2008 70.6584 101.892 76.6032C107.583 82.5481 107.376 92.0141 101.432 97.7053C95.4867 103.396 86.0203 103.19 80.3295 97.2451C74.6386 91.3003 74.8451 81.8335 80.7896 76.1427Z" fill="#ED1C24"/>
<path opacity="0.19" d="M90.9028 103.085C99.7136 103.085 106.856 95.9426 106.856 87.1318C106.856 78.3211 99.7136 71.1786 90.9028 71.1786C82.0921 71.1786 74.9496 78.3211 74.9496 87.1318C74.9496 95.9426 82.0921 103.085 90.9028 103.085Z" fill="#006BFF"/>
<path opacity="0.35" d="M93.4673 99.3341C96.837 99.3341 99.5687 96.6025 99.5687 93.2328C99.5687 89.8631 96.837 87.1315 93.4673 87.1315C90.0977 87.1315 87.366 89.8631 87.366 93.2328C87.366 96.6025 90.0977 99.3341 93.4673 99.3341Z" fill="white"/>
<path opacity="0.35" d="M101.207 89.2713C102.112 89.2713 102.845 88.5378 102.845 87.633C102.845 86.7282 102.112 85.9947 101.207 85.9947C100.302 85.9947 99.5687 86.7282 99.5687 87.633C99.5687 88.5378 100.302 89.2713 101.207 89.2713Z" fill="white"/>
<path opacity="0.35" d="M83.5693 79.7982C84.8869 78.4806 86.4717 77.5943 88.1489 77.1342L86.562 74.2296C84.6308 74.8778 82.8152 75.9678 81.2772 77.5062C75.9608 82.8225 75.9608 91.4419 81.2772 96.7582L83.5696 94.4658C79.5192 90.415 79.5192 83.8483 83.5693 79.7982Z" fill="white"/>
<path d="M77.4408 100.593C84.8758 108.028 96.9299 108.028 104.365 100.593C111.8 93.1586 111.8 81.1044 104.365 73.6695C96.9299 66.2345 84.8758 66.2345 77.4408 73.6695C70.0063 81.1044 70.0063 93.1589 77.4408 100.593ZM102.184 75.8512C108.414 82.0813 108.414 92.1824 102.184 98.4125C95.9534 104.643 85.8523 104.643 79.6222 98.4125C73.3921 92.1824 73.3921 82.0813 79.6222 75.8512C85.8523 69.6208 95.9534 69.6208 102.184 75.8512Z" fill="#FF3139"/>
<g opacity="0.54">
<path d="M93.4673 77.0828C95.2146 77.527 96.8692 78.4306 98.2365 79.7983L100.529 77.5058C98.5262 75.5032 96.0544 74.2556 93.4673 73.7618V77.0828Z" fill="white"/>
</g>
<path d="M126.76 51.2744C128.58 53.0946 128.58 56.0456 126.76 57.8658L113.171 71.4544L106.58 64.8631L120.168 51.2744C121.989 49.4543 124.94 49.4543 126.76 51.2744Z" fill="#FF3139"/>
<path d="M107.965 64.4918L113.543 70.0698C114.257 70.7843 114.257 71.9531 113.543 72.6676L110.072 76.1385C109.357 76.8531 108.189 76.8531 107.474 76.1385L101.896 70.5605C101.182 69.846 101.182 68.6772 101.896 67.9627L105.367 64.4918C106.082 63.7776 107.25 63.7776 107.965 64.4918Z" fill="#1D262D"/>
<path d="M32.1329 34.6677L38.3915 28.4088L37.4153 35.4697L32.1329 34.6677Z" fill="#D9D9D9"/>
<path d="M32.1329 34.6677L38.3918 28.4088V34.6677H32.1329Z" fill="#EBE6FC"/>
<path d="M108.018 57.5729H104.644V54.1984C104.644 54.0627 104.532 53.9517 104.397 53.9517C104.261 53.9517 104.15 54.0627 104.15 54.1984V57.5729H100.776C100.64 57.5729 100.529 57.6839 100.529 57.8196C100.529 57.9553 100.64 58.0663 100.776 58.0663H104.15V61.4408C104.15 61.5765 104.261 61.6875 104.397 61.6875C104.532 61.6875 104.644 61.5765 104.644 61.4408V58.0663H108.018C108.154 58.0663 108.265 57.9553 108.265 57.8196C108.265 57.6839 108.154 57.5729 108.018 57.5729Z" fill="#1D262D"/>
<path d="M120.048 99.4737H117.412V96.8377C117.412 96.7315 117.325 96.6447 117.219 96.6447C117.113 96.6447 117.026 96.7315 117.026 96.8377V99.4737H114.39C114.284 99.4737 114.197 99.5604 114.197 99.6666C114.197 99.7728 114.284 99.8595 114.39 99.8595H117.026V102.496C117.026 102.602 117.113 102.688 117.219 102.688C117.325 102.688 117.412 102.602 117.412 102.496V99.8595H120.048C120.154 99.8595 120.241 99.7728 120.241 99.6666C120.241 99.5604 120.154 99.4737 120.048 99.4737Z" fill="#FF3139"/>
<path d="M38.0014 86.8848H34.627V83.5104C34.627 83.3747 34.5159 83.2636 34.3803 83.2636C34.2446 83.2636 34.1335 83.3747 34.1335 83.5104V86.8848H30.7591C30.6234 86.8848 30.5124 86.9958 30.5124 87.1315C30.5124 87.2672 30.6234 87.3783 30.7591 87.3783H34.1335V90.7527C34.1335 90.8884 34.2446 90.9994 34.3803 90.9994C34.5159 90.9994 34.627 90.8884 34.627 90.7527V87.3783H38.0014C38.1371 87.3783 38.2482 87.2672 38.2482 87.1315C38.2482 86.9958 38.1371 86.8848 38.0014 86.8848Z" fill="#FF3139"/>
<path d="M42.0331 82.4442H40.4535V80.8646C40.4535 80.8011 40.4014 80.7491 40.3379 80.7491C40.2744 80.7491 40.2224 80.8011 40.2224 80.8646V82.4442H38.6427C38.5792 82.4442 38.5272 82.4963 38.5272 82.5598C38.5272 82.6233 38.5792 82.6754 38.6427 82.6754H40.2224V84.255C40.2224 84.3185 40.2744 84.3706 40.3379 84.3706C40.4014 84.3706 40.4535 84.3185 40.4535 84.255V82.6754H42.0331C42.0966 82.6754 42.1487 82.6233 42.1487 82.5598C42.1487 82.4963 42.0966 82.4442 42.0331 82.4442Z" fill="#FF3139"/>
<path d="M115.184 78.3136H113.389V76.5188C113.389 76.4467 113.33 76.3877 113.258 76.3877C113.185 76.3877 113.126 76.4467 113.126 76.5188V78.3136H111.332C111.259 78.3136 111.2 78.3726 111.2 78.4448C111.2 78.517 111.259 78.576 111.332 78.576H113.126V80.3708C113.126 80.443 113.185 80.502 113.258 80.502C113.33 80.502 113.389 80.443 113.389 80.3708V78.576H115.184C115.256 78.576 115.315 78.517 115.315 78.4448C115.315 78.3726 115.256 78.3136 115.184 78.3136Z" fill="#1D262D"/>
<path d="M119.338 73.6917H118.383V72.737C118.383 72.6985 118.352 72.6673 118.314 72.6673C118.275 72.6673 118.244 72.6989 118.244 72.737V73.6917H117.289C117.251 73.6917 117.22 73.7233 117.22 73.7615C117.22 73.8 117.251 73.8312 117.289 73.8312H118.244V74.7859C118.244 74.8244 118.276 74.8556 118.314 74.8556C118.352 74.8556 118.383 74.824 118.383 74.7859V73.8312H119.338C119.377 73.8312 119.408 73.7996 119.408 73.7615C119.408 73.7233 119.377 73.6917 119.338 73.6917Z" fill="#1D262D"/>
<path d="M27.9871 56.5409H25.7855V54.339C25.7855 54.2505 25.713 54.178 25.6245 54.178C25.536 54.178 25.4635 54.2505 25.4635 54.339V56.5409H23.262C23.1735 56.5409 23.101 56.6134 23.101 56.7019C23.101 56.7904 23.1735 56.8629 23.262 56.8629H25.4635V59.0647C25.4635 59.1532 25.536 59.2258 25.6245 59.2258C25.713 59.2258 25.7855 59.1532 25.7855 59.0647V56.8629H27.9871C28.0755 56.8629 28.1481 56.7904 28.1481 56.7019C28.1481 56.6134 28.0755 56.5409 27.9871 56.5409Z" fill="#1D262D"/>
<path d="M25.2959 75.803H23.3939V73.901C23.3939 73.8246 23.3314 73.7618 23.2547 73.7618C23.178 73.7618 23.1156 73.8243 23.1156 73.901V75.803H21.2136C21.1372 75.803 21.0744 75.8655 21.0744 75.9421C21.0744 76.0185 21.1369 76.0813 21.2136 76.0813H23.1156V77.9833C23.1156 78.06 23.178 78.1225 23.2547 78.1225C23.3311 78.1225 23.3939 78.06 23.3939 77.9833V76.0813H25.2959C25.3723 76.0813 25.4351 76.0188 25.4351 75.9421C25.4351 75.8655 25.3723 75.803 25.2959 75.803Z" fill="#1D262D"/>
<path d="M16.221 81.2547H15.2094V80.2431C15.2094 80.2025 15.1761 80.1692 15.1355 80.1692C15.0949 80.1692 15.0616 80.2025 15.0616 80.2431V81.2547H14.05C14.0094 81.2547 13.9761 81.288 13.9761 81.3286C13.9761 81.3692 14.0094 81.4025 14.05 81.4025H15.0616V82.4141C15.0616 82.4547 15.0949 82.488 15.1355 82.488C15.1761 82.488 15.2094 82.4547 15.2094 82.4141V81.4025H16.221C16.2616 81.4025 16.2949 81.3692 16.2949 81.3286C16.2949 81.288 16.2619 81.2547 16.221 81.2547Z" fill="#1D262D"/>
<path d="M107.942 29.9298H106.93V28.9179C106.93 28.8773 106.897 28.844 106.856 28.844C106.816 28.844 106.783 28.8773 106.783 28.9179V29.9298H105.771C105.73 29.9298 105.697 29.9631 105.697 30.0037C105.697 30.0443 105.73 30.0776 105.771 30.0776H106.783V31.0892C106.783 31.1298 106.816 31.1631 106.856 31.1631C106.897 31.1631 106.93 31.1298 106.93 31.0892V30.0776H107.942C107.983 30.0776 108.016 30.0443 108.016 30.0037C108.016 29.9631 107.983 29.9298 107.942 29.9298Z" fill="#1D262D"/>
<path d="M64.1856 24.9192H61.7079V22.4411C61.7079 22.3415 61.6263 22.2599 61.5267 22.2599C61.4271 22.2599 61.3456 22.3415 61.3456 22.4411V24.9192H58.8675C58.7679 24.9192 58.6864 25.0007 58.6864 25.1003C58.6864 25.1999 58.7679 25.2815 58.8675 25.2815H61.3456V27.7592C61.3456 27.8588 61.4271 27.9403 61.5267 27.9403C61.6263 27.9403 61.7079 27.8588 61.7079 27.7592V25.2815H64.1856C64.2852 25.2815 64.3668 25.1999 64.3668 25.1003C64.3668 25.0007 64.2852 24.9192 64.1856 24.9192Z" fill="#1D262D"/>
<path d="M57.2597 26.1407H55.9418V24.8227C55.9418 24.7696 55.8984 24.7262 55.8453 24.7262C55.7922 24.7262 55.7488 24.7696 55.7488 24.8227V26.1407H54.4308C54.3777 26.1407 54.3344 26.184 54.3344 26.2371C54.3344 26.2902 54.3777 26.3336 54.4308 26.3336H55.7488V27.6516C55.7488 27.7047 55.7922 27.7481 55.8453 27.7481C55.8984 27.7481 55.9418 27.7047 55.9418 27.6516V26.3336H57.2597C57.3128 26.3336 57.3562 26.2902 57.3562 26.2371C57.3562 26.184 57.3128 26.1407 57.2597 26.1407Z" fill="#1D262D"/>
<path d="M112.062 5.5345C112.384 4.66389 113.616 4.66389 113.938 5.53451L114.731 7.67812C114.832 7.95184 115.048 8.16765 115.322 8.26894L117.465 9.06215C118.336 9.38431 118.336 10.6157 117.465 10.9379L115.322 11.7311C115.048 11.8323 114.832 12.0482 114.731 12.3219L113.938 14.4655C113.616 15.3361 112.384 15.3361 112.062 14.4655L111.269 12.3219C111.168 12.0482 110.952 11.8323 110.678 11.7311L108.535 10.9379C107.664 10.6157 107.664 9.38431 108.535 9.06215L110.678 8.26894C110.952 8.16765 111.168 7.95184 111.269 7.67812L112.062 5.5345Z" fill="#ED1C24"/>
<path d="M6.06215 94.5345C6.38431 93.6639 7.61569 93.6639 7.93785 94.5345L8.73106 96.6781C8.83235 96.9518 9.04816 97.1677 9.32188 97.2689L11.4655 98.0621C12.3361 98.3843 12.3361 99.6157 11.4655 99.9379L9.32188 100.731C9.04816 100.832 8.83235 101.048 8.73106 101.322L7.93785 103.465C7.61569 104.336 6.38431 104.336 6.06215 103.465L5.26894 101.322C5.16765 101.048 4.95184 100.832 4.67812 100.731L2.5345 99.9379C1.66389 99.6157 1.66389 98.3843 2.53451 98.0621L4.67812 97.2689C4.95184 97.1677 5.16765 96.9518 5.26894 96.6781L6.06215 94.5345Z" fill="#ED1C24"/>
<circle cx="131" cy="73" r="3" stroke="#ED1C24" stroke-width="2"/>
<circle cx="57" cy="7" r="3" stroke="#ED1C24" stroke-width="2"/>
<circle cx="57" cy="135" r="3" stroke="#ED1C24" stroke-width="2"/>
</svg>
